#!OML:ASF Y:\EmotionMaleHayes\Project 1\Capture day 1\Session 1\Male1.ASF
:FULLY-SPECIFIED
:DEGREES
353
root 44.7833 17.1709 -1.51951 779.551 83.6488 785.002
lowerback 8.01139 1.14825 -7.45735
upperback 3.08959 1.0489 -1.62214
thorax -1.37254 0.544545 2.40619
lowerneck -23.2403 1.55529 3.66854
upperneck 24.5264 1.05642 -0.181781
head 11.9443 0.864128 -0.48831
rclavicle 3.06874e-015 2.09718e-014
rhumerus -40.6454 -6.36765 -69.1212
rradius 41.3624
rwrist -19.3229
rhand -22.1771 -40.2717
rfingers 7.12502
rthumb 4.23777 -70.2093
lclavicle 3.06874e-015 2.09718e-014
lhumerus -41.5462 -30.2344 92.7271
lradius 64.6132
lwrist 26.9414
lhand -31.2756 -23.1474
lfingers 7.12502
lthumb -4.5493 6.78378
rfemur -1.65907 2.24389 8.8134
rtibia 17.0665
rfoot -13.3457 -4.45051
rtoes 1.01851
lfemur 6.86172 1.89985 -23.5151
ltibia 6.82428
lfoot -10.5859 10.1237
ltoes 7.47099
354
root 44.8351 17.1637 -1.50316 778.22 83.5563 783.62
lowerback 8.05709 1.28309 -7.65006
upperback 2.8552 1.18864 -1.57884
thorax -1.65969 0.624868 2.54163
lowerneck -22.9228 1.54431 3.45882
upperneck 24.3761 1.03708 0.159388
head 11.8213 0.881507 -0.330635
rclavicle 2.84511e-015 -4.37326e-015
rhumerus -40.8453 -5.97852 -70.5096
rradius 42.3898
rwrist -20.1459
rhand -21.2333 -39.3801
rfingers 7.12502
rthumb 5.14904 -69.2975
lclavicle 2.84511e-015 -4.37326e-015
lhumerus -42.5724 -29.4548 93.6284
lradius 63.1396
lwrist 26.8981
lhand -30.8839 -22.9999
lfingers 7.12502
lthumb -4.17106 6.93902
rfemur -1.42635 2.60103 8.94377
rtibia 16.7984
rfoot -13.4065 -4.6711
rtoes 0.542681
lfemur 7.13121 1.94667 -23.4082
ltibia 6.60889
lfoot -10.7036 10.1931
ltoes 6.98844
355
root 44.91 17.1511 -1.5166 782.525 82.9555 788.029
lowerback 7.88366 1.32519 -8.06902
upperback 2.8078 1.22814 -1.91541
thorax -1.61548 0.647587 2.42382
lowerneck -22.9664 1.48691 3.49455
upperneck 24.5004 0.915278 0.258261
head 11.8759 0.847266 -0.318964
rclavicle 2.93207e-015 7.55382e-015
rhumerus -41.028 -5.2389 -72.1228
rradius 43.4502
rwrist -21.0152
rhand -20.2582 -38.4263
rfingers 7.12502
rthumb 6.09057 -68.3188
lclavicle 2.93207e-015 7.55382e-015
lhumerus -43.5479 -29.488 94.5545
lradius 61.6156
lwrist 28.0447
lhand -30.7769 -24.0414
lfingers 7.12502
lthumb -4.06773 5.89948
rfemur -0.73328 1.54895 7.69341
rtibia 16.2676
rfoot -13.1073 -3.80615
rtoes -0.629725
lfemur 7.78085 1.91945 -24.6126
ltibia 6.14614
lfoot -10.9809 10.0559
ltoes 7.74793
356
root 44.9451 17.1495 -1.50164 776.951 83.5481 782.263
lowerback 7.67707 1.46684 -7.33961
upperback 2.77225 1.48207 -1.67547
thorax -1.55679 0.769083 2.24671
lowerneck -23.0587 1.4807 3.52909
upperneck 24.3811 0.884053 0.262133
head 11.8473 0.833848 -0.328631
rclavicle 2.86995e-015 1.07344e-014
rhumerus -40.8746 -4.09446 -73.7415
rradius 44.567
rwrist -21.7402
rhand -18.9082 -38.07
rfingers 7.12502
rthumb 7.39378 -67.9208
lclavicle 2.86995e-015 1.07344e-014
lhumerus -43.9515 -29.5148 95.1631
lradius 60.0433
lwrist 28.2572
lhand -30.4887 -24.1295
lfingers 7.12502
lthumb -3.78939 5.81653
rfemur -0.857852 2.16984 8.92781
rtibia 16.2624
rfoot -13.2738 -4.07761
rtoes 0.0226138
lfemur 7.86477 1.7964 -23.4906
ltibia 5.97925
lfoot -11.375 10.3161
ltoes 8.54126
357
root 45.0046 17.132 -1.46954 772.528 83.3651 778.227
lowerback 7.80383 1.77797 -7.57512
upperback 2.85956 1.87452 -1.58904
thorax -1.5812 0.963379 2.42759
lowerneck -23.0204 1.39603 3.55612
upperneck 24.2821 0.771147 0.204905
head 11.7999 0.776246 -0.374025
rclavicle 5.29264e-015 -1.23246e-014
rhumerus -40.8648 -3.12087 -75.2034
rradius 45.6833
rwrist -21.8077
rhand -17.5018 -37.2438
rfingers 7.12502
rthumb 8.75117 -67.0424
lclavicle 5.29264e-015 -1.23246e-014
lhumerus -44.4711 -29.2844 95.6862
lradius 58.6129
lwrist 27.7184
lhand -29.5625 -23.1788
lfingers 7.12502
lthumb -2.89499 6.78133
rfemur -0.197464 3.25921 9.40552
rtibia 15.974
rfoot -13.4972 -4.59656
rtoes -0.114943
lfemur 8.75644 1.87365 -23.0908
ltibia 5.55413
lfoot -11.5525 10.6549
ltoes 7.90738
358
root 45.0772 17.131 -1.48195 774.984 83.1894 780.7
lowerback 7.46307 1.7928 -7.63301
upperback 2.86528 1.92324 -1.73407
thorax -1.3876 0.982533 2.31454
lowerneck -22.7499 1.23159 3.19198
upperneck 23.9837 0.534026 0.728655
head 11.6265 0.701801 -0.159984
rclavicle -7.30534e-015 4.57205e-015
rhumerus -40.8435 -1.99635 -76.6451
rradius 46.7226
rwrist -21.5058
rhand -16.3645 -35.9402
rfingers 7.12502
rthumb 9.84853 -65.6899
lclavicle -7.30534e-015 4.57205e-015
lhumerus -45.0213 -28.861 96.1245
lradius 57.2929
lwrist 27.0441
lhand -28.264 -21.8517
lfingers 7.12502
lthumb -1.64089 8.1217
rfemur 0.405082 2.30692 8.7489
rtibia 15.5554
rfoot -13.4077 -3.70476
rtoes -0.582712
lfemur 9.26775 1.90101 -23.7268
ltibia 5.16641
lfoot -11.5371 10.5217
ltoes 7.16146
359
root 45.1029 17.1294 -1.46323 771.453 83.3283 777.216
lowerback 7.81404 1.97275 -7.47154
upperback 2.69028 2.12502 -1.63319
thorax -1.78341 1.09685 2.29561
lowerneck -22.7941 1.18155 3.48055
upperneck 24.1967 0.434871 0.465309
head 11.717 0.654336 -0.321071
rclavicle 1.14674e-014 5.36719e-015
rhumerus -40.9537 -0.623638 -78.1613
rradius 47.7934
rwrist -21.0829
rhand -15.8146 -34.506
rfingers 7.12502
rthumb 10.379 -64.2299
lclavicle 1.14674e-014 5.36719e-015
lhumerus -45.6721 -28.5013 96.5327
lradius 56.0465
lwrist 26.4056
lhand -27.7146 -21.4539
lfingers 7.12502
lthumb -1.1103 8.52298
rfemur 0.610009 3.2036 9.45266
rtibia 15.6192
rfoot -13.9255 -4.02875
rtoes 1.60365
lfemur 9.43704 1.79273 -23.1491
ltibia 5.16366
lfoot -11.691 10.7857
ltoes 6.76851
360
root 45.1585 17.126 -1.4698 775.033 82.6189 780.97
lowerback 7.83463 2.11163 -8.1917
upperback 2.66625 2.25496 -1.91629
thorax -1.8437 1.1679 2.38689
lowerneck -22.6819 1.04968 3.5266
upperneck 24.1634 0.249706 0.426517
head 11.6796 0.570611 -0.374149
rclavicle 2.01518e-014 1.03368e-014
rhumerus -41.0896 0.619473 -79.5899
rradius 48.949
rwrist -20.287
rhand -15.6198 -32.994
rfingers 7.12502
rthumb 10.5669 -62.7084
lclavicle 2.01518e-014 1.03368e-014
lhumerus -46.2776 -28.2567 96.9438
lradius 54.7909
lwrist 25.7493
lhand -27.8428 -21.937
lfingers 7.12502
lthumb -1.23411 8.03914
rfemur 1.23383 2.79451 8.25003
rtibia 14.9033
rfoot -13.5644 -3.78232
rtoes -0.899022
lfemur 9.94308 1.82073 -24.3173
ltibia 4.92148
lfoot -11.7483 10.9187
ltoes 5.53054
361
root 45.202 17.1365 -1.47499 772.922 82.9181 778.696
lowerback 7.55177 2.17781 -7.72219
upperback 2.62895 2.39951 -1.79675
thorax -1.7297 1.23407 2.2452
lowerneck -22.4337 1.01404 3.48837
upperneck 23.8687 0.213283 0.465826
head 11.5184 0.549738 -0.360681
rclavicle 6.75868e-015 -1.19271e-015
rhumerus -41.0296 2.11592 -80.9177
rradius 50.0334
rwrist -19.3971
rhand -15.228 -31.7821
rfingers 7.12502
rthumb 10.9448 -61.4768
lclavicle 6.75868e-015 -1.19271e-015
lhumerus -46.614 -27.9026 97.315
lradius 53.4939
lwrist 25.0444
lhand -27.8956 -22.0996
lfingers 7.12502
lthumb -1.28512 7.87629
rfemur 1.3643 2.48835 8.66145
rtibia 14.8345
rfoot -13.7105 -3.27899
rtoes -0.110642
lfemur 10.0795 1.84341 -23.9236
ltibia 4.74412
lfoot -11.7242 10.9645
ltoes 4.04705
362
root 45.2366 17.1358 -1.45912 770.106 83.0938 775.993
lowerback 7.69209 2.34495 -7.49802
upperback 2.58957 2.62023 -1.68979
thorax -1.8663 1.34747 2.20314
lowerneck -22.3613 0.845493 3.36492
upperneck 23.7619 -0.0202035 0.618683
head 11.4601 0.451773 -0.321926
rclavicle 2.34814e-015 -1.70955e-014
rhumerus -41.0963 3.6363 -82.2551
rradius 51.1153
rwrist -18.3655
rhand -14.684 -30.7393
rfingers 7.12502
rthumb 11.4695 -60.4055
lclavicle 2.34814e-015 -1.70955e-014
lhumerus -47.0064 -27.6793 97.6564
lradius 52.3056
lwrist 24.5898
lhand -27.9746 -22.1463
lfingers 7.12502
lthumb -1.36139 7.82911
rfemur 1.71263 3.02645 9.2478
rtibia 14.7263
rfoot -13.9647 -3.43956
rtoes 1.28155
lfemur 10.4507 1.74366 -23.4147
ltibia 4.59232
lfoot -11.8969 11.113
ltoes 4.089
363
root 45.2715 17.1404 -1.45847 771.256 83.0651 777.147
lowerback 7.67889 2.38897 -7.53364
upperback 2.60437 2.67905 -1.7502
thorax -1.84751 1.37685 2.15515
lowerneck -22.049 0.879422 3.25078
upperneck 23.3439 0.0227369 0.834812
head 11.2434 0.480001 -0.218547
rclavicle -4.05024e-015 -1.17283e-014
rhumerus -41.0811 5.02895 -83.4924
rradius 52.38
rwrist -16.9138
rhand -14.3021 -29.6924
rfingers 7.12502
rthumb 11.8378 -59.3378
lclavicle -4.05024e-015 -1.17283e-014
lhumerus -47.22 -27.3882 97.823
lradius 51.1581
lwrist 24.2395
lhand -28.0833 -22.5017
lfingers 7.12502
lthumb -1.4664 7.47298
rfemur 2.00977 2.8152 9.04644
rtibia 14.4764
rfoot -13.9005 -3.25918
rtoes 1.7509
lfemur 10.6106 1.55746 -23.6262
ltibia 4.57152
lfoot -12.151 11.1615
ltoes 4.7988
364
root 45.3117 17.1486 -1.44265 771.976 82.9798 777.87
lowerback 7.47394 2.44076 -7.87917
upperback 2.72611 2.75423 -1.73186
thorax -1.62862 1.40556 2.3695
lowerneck -22.3046 0.777341 3.23996
upperneck 23.3711 -0.120507 0.787989
head 11.3001 0.407785 -0.256319
rclavicle 6.12505e-015 -3.39922e-014
rhumerus -40.9256 6.66036 -84.6996
rradius 53.7012
rwrist -15.4861
rhand -14.2971 -28.7708
rfingers 7.12502
rthumb 11.8426 -58.416
lclavicle 6.12505e-015 -3.39922e-014
lhumerus -47.1907 -26.8048 97.7741
lradius 49.9739
lwrist 23.6234
lhand -28.0991 -22.7568
lfingers 7.12502
lthumb -1.48167 7.21784
rfemur 2.35813 3.16126 9.0368
rtibia 13.9751
rfoot -13.7548 -3.69639
rtoes 0.856205
lfemur 10.7516 1.4103 -23.6923
ltibia 4.55924
lfoot -12.3515 11.2207
ltoes 4.79693
365
root 45.346 17.153 -1.43941 771.267 82.8646 777.107
lowerback 7.62568 2.55316 -7.93391
upperback 2.53777 2.86818 -1.77218
thorax -1.92123 1.47464 2.33483
lowerneck -22.0625 0.81829 3.53391
upperneck 23.4397 -0.0524594 0.435891
head 11.2801 0.421496 -0.423791
rclavicle -1.17283e-014 -2.50469e-014
rhumerus -41.2474 8.44204 -86.0212
rradius 54.9328
rwrist -14.3493
rhand -14.3373 -27.8472
rfingers 7.12502
rthumb 11.8039 -57.4946
lclavicle -1.17283e-014 -2.50469e-014
lhumerus -47.6138 -26.0863 97.805
lradius 48.831
lwrist 22.8427
lhand -28.1428 -22.9181
lfingers 7.12502
lthumb -1.5238 7.05617
rfemur 2.49181 3.3249 9.0174
rtibia 13.773
rfoot -13.7509 -3.64801
rtoes 1.00204
lfemur 10.8984 1.24554 -23.7991
ltibia 4.41969
lfoot -12.6416 11.4513
ltoes 5.57571
366
root 45.3936 17.1615 -1.44098 769.643 83.3092 775.378
lowerback 7.22436 2.52997 -7.34106
upperback 2.59976 2.92059 -1.68028
thorax -1.61812 1.48848 2.11579
lowerneck -21.9922 0.685401 3.27404
upperneck 23.2594 -0.232923 0.750872
head 11.1969 0.35384 -0.294217
rclavicle -1.00262e-014 2.3059e-014
rhumerus -41.2934 9.91175 -87.1065
rradius 56.1728
rwrist -12.9792
rhand -13.7759 -27.215
rfingers 7.12502
rthumb 12.3452 -56.8305
lclavicle -1.00262e-014 2.3059e-014
lhumerus -47.6567 -25.3991 97.6919
lradius 47.7023
lwrist 22.2341
lhand -28.1298 -22.7656
lfingers 7.12502
lthumb -1.51124 7.20878
rfemur 2.80207 3.01495 9.53549
rtibia 13.4449
rfoot -13.739 -3.49964
rtoes 0.80138
lfemur 11.1294 1.10798 -23.3312
ltibia 4.18516
lfoot -12.6435 11.4441
ltoes 5.39995
